<svg width="78" height="84" viewBox="0 0 78 84" fill="none" xmlns="http://www.w3.org/2000/svg">
<path d="M24.0458 35.2789C13.2782 36.6326 -0.29103 53.328 1.09756 67.9154C1.74835 74.7472 5.45821 80.1056 10.7759 81.8964C12.0497 82.3264 13.3478 82.538 14.6493 82.538C18.6759 82.538 22.7268 80.511 26.1826 76.6649C36.0141 65.7192 29.6698 43.951 26.2453 37.2636C25.6711 36.1426 25.069 35.1591 24.0458 35.2825V35.2789ZM24.3555 74.9799C20.4786 79.2983 15.8187 80.9516 11.559 79.5204C7.1809 78.0433 4.11835 73.5064 3.56152 67.6721C2.2669 54.0718 14.98 39.5268 23.7604 37.8559C25.8381 41.2577 34.1557 64.0658 24.3555 74.9764V74.9799Z" fill="#966D4F" stroke="#966D4F"/>
<path d="M14.0159 50.8922C8.45461 58.4678 9.49518 67.2068 9.54042 67.577C9.62047 68.208 10.1529 68.6698 10.7654 68.6698C10.8176 68.6698 10.8698 68.6698 10.922 68.6592C11.5972 68.5711 12.0775 67.9436 11.9905 67.2562C11.98 67.1751 11.0265 59.1588 15.9961 52.3868C16.4033 51.8334 16.2885 51.0473 15.7421 50.6348C15.1922 50.2188 14.4161 50.3352 14.0124 50.8922H14.0159Z" fill="#966D4F" stroke="#966D4F"/>
<path d="M48.3443 48.4281C49.6459 48.4281 50.9405 48.2166 52.2142 47.7865C57.5354 45.9957 61.2418 40.6374 61.8926 33.8055C63.2847 19.2217 49.7155 2.52278 38.9443 1.16909C37.8933 1.03514 37.3156 2.03277 36.7449 3.15026C33.3204 9.84112 26.976 31.6058 36.8075 42.5551C40.2598 46.3976 44.3142 48.4281 48.3408 48.4281H48.3443ZM39.2297 3.74955C48.0102 5.4205 60.7267 19.9655 59.4286 33.5658C58.8718 39.4 55.8093 43.937 51.4312 45.4141C47.175 46.8418 42.515 45.192 38.6381 40.8736C28.8379 29.9595 37.159 7.15491 39.2297 3.75308V3.74955Z" fill="#966D4F" stroke="#966D4F"/>
<path d="M50.9996 33.1499C50.9161 33.8338 51.3929 34.4613 52.0715 34.5494C52.1237 34.5565 52.1759 34.56 52.2281 34.56C52.8406 34.56 53.3696 34.1017 53.4497 33.4707C53.4949 33.1005 54.5355 24.3615 48.9742 16.7859C48.5705 16.2324 47.7944 16.1161 47.2445 16.5285C46.6981 16.941 46.5798 17.7236 46.9905 18.2805C51.9393 25.0243 51.0066 33.0723 50.9962 33.1534L50.9996 33.1499Z" fill="#966D4F" stroke="#966D4F"/>
<path d="M37.1485 58.133C32.4364 63.0648 30.8146 69.3996 32.9201 74.6628C34.9839 79.8307 40.0545 82.9259 46.8373 83.1479C47.0218 83.1515 47.2027 83.155 47.3872 83.155C61.7255 83.155 73.7112 64.5419 76.4884 57.6536C76.9617 56.4832 77.3236 55.3763 76.5545 54.6642C68.5606 47.2401 47.2132 47.6032 37.1485 58.133ZM47.4081 80.6521C47.2445 80.6521 47.0809 80.6521 46.9174 80.645C41.1542 80.4547 36.8875 77.9306 35.2066 73.7215C33.4735 69.389 34.8969 64.0836 38.9199 59.8745C48.3025 50.0568 67.4747 50.4304 74.4281 56.1166C73.2275 59.8815 61.7255 80.6556 47.4046 80.6521H47.4081Z" fill="#966D4F" stroke="#966D4F"/>
<path d="M58.3218 57.0579C49.0193 57.6819 43.1274 64.1507 42.8803 64.4256C42.4209 64.9368 42.4592 65.73 42.9638 66.1953C43.2004 66.4103 43.4997 66.5196 43.7956 66.5196C44.1296 66.5196 44.4672 66.3821 44.7108 66.1072C44.7665 66.0472 50.1712 60.1143 58.4854 59.5538C59.1675 59.508 59.6825 58.9122 59.6373 58.2212C59.5921 57.5338 58.9726 57.0121 58.3253 57.0544L58.3218 57.0579Z" fill="#966D4F" stroke="#966D4F"/>
</svg>
