<svg width="101" height="56" viewBox="0 0 101 56" fill="none" xmlns="http://www.w3.org/2000/svg">
<path d="M54.0994 50.9063C51.1797 55.5345 43.4112 51.6875 43.4112 51.6875L17.4965 34.2139L15.7152 39.358L2.3291 39.159L6.96359 4.24878L20.3275 6.17227L36.4188 5.42056" stroke="#966D4F" stroke-width="4" stroke-linecap="round" stroke-linejoin="round"/>
<path d="M54.0994 50.9063C51.1797 55.5345 43.4112 51.6875 43.4112 51.6875L17.4965 34.2139L15.7152 39.358L2.3291 39.159L6.96359 4.24878L20.3275 6.17227L36.4188 5.42056" stroke="#966D4F" stroke-width="4" stroke-linecap="round" stroke-linejoin="round"/>
<path d="M17.4966 34.214C17.4966 34.214 22.3085 12.1787 20.3275 6.17236" stroke="#966D4F" stroke-width="4" stroke-linecap="round" stroke-linejoin="round"/>
<path d="M44.5718 42.9619L50.4924 47.6638C50.4924 47.6638 58.8079 54.4586 63.1023 48.5997" stroke="#966D4F" stroke-width="4" stroke-linecap="round" stroke-linejoin="round"/>
<path d="M50.4775 37.1323L56.3982 41.8342C56.3982 41.8342 65.4897 50.722 71.3217 42.6964" stroke="#966D4F" stroke-width="4" stroke-linecap="round" stroke-linejoin="round"/>
<path d="M57.6251 31.6272C61.4095 35.5921 66.8349 39.6233 72.216 40.8983C74.8991 41.5394 77.4418 38.7611 76.7396 36.1964C75.9708 33.3738 73.3247 31.2292 71.0629 29.6374C64.6322 25.105 48.7257 15.1928 48.7257 15.1928L43.2412 16.2393C31.2004 33.5065 25.7824 14.3526 36.4188 5.4132C47.0552 -3.52623 77.3974 8.58217 77.3974 8.58217" stroke="#966D4F" stroke-width="4" stroke-linecap="round" stroke-linejoin="round"/>
<path d="M81.3741 32.5925C81.3741 32.5925 77.1683 38.8273 75.6826 39.859" stroke="#966D4F" stroke-width="4" stroke-linecap="round" stroke-linejoin="round"/>
<path d="M83.2072 35.8206C83.2072 35.8206 78.388 13.7853 80.3689 7.77896L93.7328 5.85547L98.3673 40.7657L84.9812 40.9647L83.1999 35.8206H83.2072Z" stroke="#966D4F" stroke-width="4" stroke-linecap="round" stroke-linejoin="round"/>
</svg>
