<svg width="89" height="77" viewBox="0 0 89 77" fill="none" xmlns="http://www.w3.org/2000/svg">
<path d="M62.3042 39.9363V54.452H65.5316V43.1744H81.9014V72.9182H70.3217V74.5385H62.3042V76.1588H85.1289V39.9363H62.3042Z" fill="#966D4F"/>
<path d="M71.8436 46.5198H68.6162V50.5347H71.8436V46.5198Z" fill="#966D4F"/>
<path d="M78.3798 46.5198H75.1523V50.5347H78.3798V46.5198Z" fill="#966D4F"/>
<path d="M71.8436 54.4946H68.6162V58.5096H71.8436V54.4946Z" fill="#966D4F"/>
<path d="M78.3798 54.4946H75.1523V58.5096H78.3798V54.4946Z" fill="#966D4F"/>
<path d="M71.8436 62.4697H68.6162V66.4846H71.8436V62.4697Z" fill="#966D4F"/>
<path d="M78.3798 62.4697H75.1523V66.4846H78.3798V62.4697Z" fill="#966D4F"/>
<path d="M51.0927 14.7744C50.3992 14.7744 49.8364 14.2097 49.8364 13.514V12.0438C49.7889 11.6578 49.4896 10.5737 47.6206 10.5737H40.1161C36.8008 10.5737 35.4947 8.06225 35.4258 6.37288V6.32046V5.22678C35.4258 4.53102 35.9886 3.96631 36.6821 3.96631C37.3755 3.96631 37.9384 4.53102 37.9384 5.22678V6.28472C37.9716 6.70885 38.2281 8.0551 40.1209 8.0551H47.6254C51.1853 8.0551 52.273 10.576 52.3489 11.9104V11.9842V13.5163C52.3489 14.2121 51.7861 14.7768 51.0927 14.7768V14.7744Z" fill="#966D4F"/>
<path d="M40.9258 6.54915C40.2324 6.54915 39.6695 5.98444 39.6695 5.29106V4.14735C39.622 3.76134 39.3228 2.67719 37.4538 2.67719H23.4374C22.744 2.67719 22.1812 2.11248 22.1812 1.41672C22.1812 0.72096 22.744 0.15625 23.4374 0.15625H37.4538C41.0137 0.15625 42.1014 2.67719 42.1774 4.01153V4.08539V5.28868C42.1774 5.98444 41.6145 6.54677 40.9211 6.54677L40.9258 6.54915Z" fill="#966D4F"/>
<path d="M71.9365 76.1587H10.1548V52.834H71.9365V76.1587ZM13.3822 72.9205H68.7067V56.0721H13.3822V72.9205Z" fill="#966D4F"/>
<path d="M28.6265 59.0244H16.9375V62.2626H28.6265V59.0244Z" fill="#966D4F"/>
<path d="M64.0926 59.0244H34.9912V62.2626H64.0926V59.0244Z" fill="#966D4F"/>
<path d="M23.7011 65.7175H20.4736V73.7903H23.7011V65.7175Z" fill="#966D4F"/>
<path d="M28.7831 65.7175H25.5557V73.7903H28.7831V65.7175Z" fill="#966D4F"/>
<path d="M64.0926 65.0859H34.9912V68.3241H64.0926V65.0859Z" fill="#966D4F"/>
<path d="M12.7435 46.203H4.52652C3.63595 46.203 2.91162 45.4786 2.91162 44.5827C2.91162 43.6868 3.63357 42.9648 4.52652 42.9648H12.7435C13.6341 42.9648 14.3584 43.6892 14.3584 44.5827C14.3584 45.4763 13.6364 46.203 12.7435 46.203Z" fill="#966D4F"/>
<path d="M33.5067 46.203H25.2897C24.3991 46.203 23.6748 45.4786 23.6748 44.5827C23.6748 43.6868 24.3968 42.9648 25.2897 42.9648H33.5067C34.3972 42.9648 35.1216 43.6892 35.1216 44.5827C35.1216 45.4763 34.3996 46.203 33.5067 46.203Z" fill="#966D4F"/>
<path d="M32.331 40.3722C31.4405 40.3722 30.7161 39.6478 30.7161 38.7519V35.8998C30.7161 34.544 29.6166 33.4408 28.2653 33.4408H15.4839C14.1326 33.4408 13.033 34.544 13.033 35.8998V38.7519C13.033 39.6455 12.3111 40.3722 11.4181 40.3722C10.5252 40.3722 9.80322 39.6478 9.80322 38.7519V35.8998C9.80322 32.7593 12.3514 30.2026 15.4815 30.2026H28.2629C31.393 30.2026 33.9412 32.7593 33.9412 35.8998V38.7519C33.9412 39.6455 33.2192 40.3722 32.3263 40.3722H32.331Z" fill="#966D4F"/>
<path d="M86.3851 76.1586H1.6149C0.724329 76.1586 0 75.4342 0 74.5383C0 73.6424 0.721954 72.9204 1.6149 72.9204H86.3875C87.278 72.9204 88.0024 73.6448 88.0024 74.5383C88.0024 75.4318 87.2804 76.1586 86.3875 76.1586H86.3851Z" fill="#966D4F"/>
<path d="M26.9047 54.4518V43.048C26.9047 41.2228 28.3842 39.7408 30.2033 39.7408H34.4614C36.2806 39.7408 37.7601 41.2252 37.7601 43.048V54.4518H40.9875V43.048C40.9875 39.4382 38.0593 36.5002 34.4614 36.5002H30.2033C26.6054 36.5002 23.6772 39.4382 23.6772 43.048V54.4518H26.9047Z" fill="#966D4F"/>
<path d="M40.9875 74.5386H23.6772V76.1588H40.9875V74.5386Z" fill="#966D4F"/>
<path d="M11.7674 74.5384V72.9205H6.13904V43.048C6.13904 41.2228 7.61857 39.7408 9.4377 39.7408H13.6958C15.5149 39.7408 16.9945 41.2252 16.9945 43.048V54.4518H20.2219V43.048C20.2219 39.4382 17.2937 36.5002 13.6958 36.5002H9.4377C5.83981 36.5002 2.91162 39.4382 2.91162 43.048V76.1586H20.2219V74.5384H11.7674Z" fill="#966D4F"/>
<path d="M47.1954 54.452L49.6629 19.9403H52.9568L55.4243 54.452H58.6612L55.961 16.7021H46.6587L43.9585 54.452H47.1954Z" fill="#966D4F"/>
</svg>
