<svg width="17" height="21" viewBox="0 0 17 21" fill="none" xmlns="http://www.w3.org/2000/svg">
<path d="M0.739741 12.4255H9.45297C9.85979 12.4255 10.1919 12.094 10.1919 11.6823C10.1919 11.2705 9.86237 10.939 9.45297 10.939H2.34386L9.56111 2.47323L8.26597 7.03113C8.15268 7.42477 8.38184 7.83653 8.77322 7.95048C9.16459 8.06184 9.57399 7.83394 9.68728 7.44031L11.3764 1.49691C11.5283 0.963428 11.294 0.406639 10.8073 0.145078C10.3207 -0.116483 9.73105 -0.00771523 9.37315 0.414408L0.178428 11.2006C-0.00953442 11.4207 -0.0533066 11.7315 0.0677105 11.9956C0.188728 12.2598 0.45136 12.4281 0.739741 12.4281V12.4255Z" fill="#E30613"/>
<path d="M5.81216 9.31526C5.81216 9.72443 6.14174 10.0585 6.55114 10.0585H13.6577L6.44042 18.5269L7.73556 13.969C7.84885 13.5753 7.61969 13.1636 7.22832 13.0496C6.83694 12.9383 6.42754 13.1662 6.31425 13.5598L4.62516 19.5032C4.47325 20.0367 4.70756 20.5935 5.1942 20.855C5.36929 20.9508 5.55983 20.9975 5.74779 20.9975C6.07737 20.9975 6.39922 20.855 6.62838 20.5857L15.8231 9.79695C16.0111 9.57682 16.0548 9.26605 15.9338 9.0019C15.8128 8.73775 15.5502 8.56942 15.2618 8.56942H6.54856C6.14174 8.56942 5.80958 8.9009 5.80958 9.31267L5.81216 9.31526Z" fill="#E30613"/>
</svg>
