<svg width="19" height="20" viewBox="0 0 19 20" fill="none" xmlns="http://www.w3.org/2000/svg">
<path d="M4.29113 11.649C3.96555 11.649 3.63103 11.6065 3.29858 11.5019C3.11999 11.4457 2.97986 11.3849 2.85828 11.3097C2.49217 11.0841 2.19544 10.7586 1.93373 10.4716C1.89321 10.4271 1.85337 10.3833 1.81421 10.3408C1.71461 10.2336 1.5896 10.1153 1.45772 9.98973C0.928129 9.48829 0.203462 8.80118 0.0550945 7.78262C-0.108385 6.66272 0.114854 5.71868 0.423953 4.60205C0.680162 3.67697 1.03734 2.81138 1.48519 2.03013C1.74552 1.57642 2.04089 1.14428 2.36166 0.74679L2.41112 0.684682C2.55674 0.500974 2.72228 0.293077 3.04512 0.148594C3.69629 -0.142985 4.3763 -0.00765574 5.06594 0.549353C5.50143 0.901079 5.90944 1.28288 6.30371 1.65226C6.43422 1.77451 6.56473 1.89676 6.69661 2.01771C6.87383 2.18115 6.87864 2.44985 6.70691 2.61852C6.53519 2.78719 6.25288 2.79177 6.07566 2.62833C5.94241 2.50542 5.80984 2.38186 5.67796 2.25764C5.29467 1.89872 4.89834 1.52804 4.48827 1.19658C3.95799 0.768364 3.6537 0.814781 3.42565 0.916769C3.30682 0.969724 3.2505 1.03706 3.12342 1.19658L3.06984 1.26326C2.77654 1.6261 2.50728 2.02033 2.26893 2.43547C1.85543 3.15657 1.52503 3.95809 1.28737 4.81713C1.00437 5.84093 0.798307 6.70063 0.939119 7.66494C1.04627 8.40042 1.59922 8.92409 2.08759 9.38696C2.23047 9.52229 2.3651 9.64977 2.48393 9.77791C2.52514 9.82237 2.56636 9.86747 2.60826 9.91324C2.8418 10.1695 3.08358 10.4343 3.34323 10.5945C3.39955 10.6291 3.47373 10.6605 3.57814 10.6932C4.93887 11.1201 6.48299 10.1094 6.4981 10.0996C6.70005 9.96489 6.97892 10.012 7.11973 10.2048C7.26123 10.397 7.21178 10.6625 7.00915 10.7965C6.94595 10.8383 5.70887 11.6477 4.29113 11.6477V11.649Z" fill="#E30613"/>
<path d="M3.60202 11.553C3.52508 11.553 3.44747 11.5341 3.37672 11.4949C2.152 10.8117 3.04289 7.52193 3.6659 6.03526C4.6138 3.77454 6.02742 2.20485 6.08649 2.13948C6.24791 1.9623 6.52953 1.94269 6.71636 2.09567C6.9032 2.24931 6.92312 2.51735 6.76239 2.69518C6.73972 2.72002 5.38243 4.23545 4.49566 6.35038C4.11375 7.26042 3.82045 8.3411 3.70986 9.24002C3.57385 10.3482 3.76893 10.7221 3.82869 10.762C4.04162 10.881 4.11237 11.1405 3.98805 11.3432C3.90493 11.4779 3.75519 11.553 3.60202 11.553Z" fill="#E30613"/>
<path d="M10.4565 17.3611C10.1309 17.3611 9.79637 17.3186 9.46323 17.214C8.95837 17.0558 8.83473 16.9309 7.65053 15.7339C7.30365 15.3835 6.87435 14.9494 6.30973 14.3858C6.26783 14.3538 6.23142 14.3146 6.20326 14.2688C6.1854 14.2394 6.16067 14.2001 6.14487 14.0681H6.14281C6.14281 14.0602 6.14281 14.0517 6.14281 14.0439C6.12701 13.8968 6.12083 13.6458 6.138 13.2012C6.15724 12.7122 6.21974 11.9427 6.40795 11.0555C6.74109 9.48453 7.53926 7.24016 9.45086 5.46976C9.5958 5.33574 9.81698 5.31089 9.99007 5.40896C10.9551 5.95485 11.6503 6.60208 12.4546 7.3526C12.5865 7.47551 12.7218 7.60169 12.8619 7.73113C13.0392 7.89458 13.044 8.16327 12.8723 8.33194C12.7005 8.50062 12.4182 8.50519 12.241 8.34175C12.0995 8.21165 11.9628 8.08417 11.8296 7.95995C11.1543 7.33038 10.5602 6.77664 9.82797 6.31573C7.02409 9.12888 7.00005 13.0783 7.02615 13.87C7.55849 14.4015 7.96787 14.8153 8.30101 15.152C9.45361 16.3164 9.4701 16.3216 9.74279 16.4073C11.1042 16.8342 12.6476 15.8234 12.6634 15.8136C12.8654 15.679 13.1436 15.726 13.2851 15.9189C13.4266 16.1111 13.3771 16.3765 13.1745 16.5106C13.1113 16.5524 11.8742 17.3611 10.4565 17.3611Z" fill="#E30613"/>
<path d="M9.76752 17.2643C9.69059 17.2643 9.61297 17.2454 9.54222 17.2062C8.17188 16.4413 9.59786 12.837 9.89734 12.1218C10.8349 9.88594 12.1627 7.97368 12.2183 7.89327C12.3543 7.69779 12.6318 7.64484 12.8372 7.77428C13.0426 7.90438 13.0989 8.16785 12.9622 8.36332C12.9492 8.38228 11.629 10.2854 10.7264 12.4363C10.3191 13.4078 10.0189 14.41 9.90215 15.1867C9.76271 16.1163 9.9255 16.4341 9.99351 16.472C10.2064 16.591 10.2779 16.8512 10.1529 17.0532C10.0698 17.1879 9.9207 17.263 9.76752 17.263V17.2643Z" fill="#E30613"/>
<path d="M15.0071 19.9997C14.1739 19.9997 13.0371 19.5617 12.5776 18.8282C12.0604 18.0031 12.2877 17.0865 12.4704 16.3504C12.9595 14.3734 13.9905 12.6128 15.4522 11.2589C15.5971 11.1248 15.8183 11.1 15.9914 11.1981C16.9565 11.7433 17.6509 12.3912 18.4553 13.141C18.5878 13.2646 18.7232 13.3908 18.8633 13.5202C19.0405 13.6837 19.0453 13.9524 18.8736 14.121C18.8255 14.1681 18.7685 14.2028 18.708 14.2243L18.5933 14.3695C17.789 15.3874 17.2072 16.1229 16.5265 17.7017C16.3328 18.1508 16.238 18.5255 16.1624 18.8262C16.0168 19.4028 15.8664 19.9997 15.0071 19.9997ZM15.8286 12.1042C14.6046 13.3215 13.768 14.814 13.3393 16.5452C13.171 17.2232 13.0131 17.8632 13.3448 18.3927C13.6162 18.8255 14.4466 19.1492 15.0071 19.1492C15.0985 19.1492 15.1266 19.1354 15.1266 19.1348C15.1774 19.0897 15.2448 18.8223 15.2942 18.6268C15.3732 18.3149 15.4804 17.8874 15.7009 17.3774C16.4255 15.6973 17.0678 14.8853 17.8804 13.8569L17.9092 13.8203C17.8831 13.7955 17.857 13.7713 17.8309 13.7471C17.1557 13.1175 16.5615 12.5638 15.8293 12.1029L15.8286 12.1042Z" fill="#E30613"/>
<path d="M5.03967 7.42256C4.98403 7.42256 4.92565 7.41275 4.8652 7.39052C4.83292 7.37875 4.80338 7.36372 4.77591 7.34672C4.54099 7.20747 4.53481 6.9793 4.57259 6.8577C4.62616 6.68576 4.81025 6.5184 5.08913 6.55697C5.24093 6.57789 5.36388 6.67007 5.42639 6.79233C5.49027 6.90216 5.50263 7.03749 5.44768 7.1617C5.38449 7.30422 5.23063 7.42256 5.03967 7.42256Z" fill="#E30613"/>
<path d="M6.14762 7.36829C5.93263 7.36829 5.74373 7.22054 5.70733 7.01199C5.66749 6.78056 5.83234 6.56155 6.0755 6.52363C7.45614 6.30789 9.55527 5.39654 9.57588 5.38738C9.7998 5.28932 10.0649 5.38346 10.168 5.59659C10.271 5.80972 10.1721 6.06207 9.94817 6.16013C9.8575 6.19936 7.71785 7.12836 6.22043 7.36241C6.1957 7.36633 6.17166 7.36829 6.14762 7.36829Z" fill="#E30613"/>
<path d="M11.5479 13.0665C11.4895 13.0665 11.4243 13.0561 11.3522 13.0293C11.1221 12.9449 11.0074 12.6991 11.096 12.4801C11.153 12.3389 11.28 12.2434 11.425 12.216C11.4813 12.2016 11.5479 12.1944 11.6256 12.2016C11.8715 12.2225 12.0521 12.4297 12.0301 12.6631C12.0136 12.8318 11.8962 12.9685 11.7396 13.0234C11.6874 13.0482 11.6235 13.0665 11.5479 13.0665Z" fill="#E30613"/>
<path d="M12.6497 12.9796C12.4381 12.9796 12.2499 12.8357 12.2108 12.6305C12.1668 12.3997 12.3275 12.178 12.57 12.1362C13.8044 11.9224 15.4495 11.3066 15.4659 11.3C15.6954 11.2137 15.9543 11.321 16.045 11.5393C16.1357 11.7577 16.023 12.0041 15.7943 12.0904C15.7235 12.1172 14.0516 12.7429 12.7301 12.9724C12.7033 12.9769 12.6758 12.9796 12.6497 12.9796Z" fill="#E30613"/>
</svg>
