<svg width="19" height="19" viewBox="0 0 19 19" fill="none" xmlns="http://www.w3.org/2000/svg">
<path d="M11.2348 13.2912C10.6156 13.4154 10.1268 13.67 9.69291 13.894C9.33645 14.0794 9.0024 14.2525 8.62965 14.3401C8.4443 14.3828 8.29153 14.5132 8.22024 14.6904C8.14895 14.8676 8.16728 15.0672 8.27116 15.226C8.67039 15.8431 10.1838 17.8187 12.9377 17.3828C13.3287 17.3217 13.84 17.116 14.3451 16.8207C14.6242 16.6578 14.7179 16.2993 14.5529 16.0203C14.3899 15.7413 14.0315 15.6496 13.7524 15.8126C13.3797 16.0305 12.9967 16.1894 12.7523 16.2281C11.2857 16.4602 10.2938 15.7942 9.71735 15.1873C9.89456 15.1059 10.0616 15.0183 10.2286 14.9327C10.6278 14.725 11.0047 14.5295 11.4609 14.4378C13.2982 14.0692 13.9581 14.7617 14.6568 15.4949C14.6609 15.4989 14.6629 15.501 14.667 15.505L17.9973 18.8289C18.1113 18.9429 18.26 19 18.4107 19C18.5615 19 18.7102 18.9429 18.8242 18.8289C19.0524 18.6008 19.0524 18.2301 18.8242 18.002L15.5 14.6822C14.5509 13.6863 13.51 12.8329 11.2328 13.2912H11.2348Z" fill="#E30613"/>
<path d="M15.8137 13.7535C15.6508 14.0325 15.7445 14.389 16.0215 14.5539C16.1152 14.6089 16.215 14.6334 16.3168 14.6334C16.5164 14.6334 16.712 14.5295 16.822 14.3441C17.1173 13.8411 17.3231 13.3279 17.3842 12.9368C17.8221 10.1833 15.8443 8.66798 15.2271 8.27083C15.0682 8.16696 14.8666 8.14863 14.6914 8.21991C14.5142 8.29119 14.3838 8.44394 14.3411 8.62928C14.2555 9.00199 14.0803 9.33804 13.895 9.69242C13.6709 10.1242 13.4163 10.615 13.2921 11.2342C13.2086 11.6517 13.1658 12.0468 13.1678 12.4093C13.1678 12.7311 13.4306 12.9918 13.7524 12.9918C14.0742 12.9918 14.335 12.7291 14.335 12.4052C14.335 12.1201 14.3675 11.8044 14.4368 11.4643C14.5285 11.0081 14.724 10.6313 14.9318 10.2321C15.0173 10.0651 15.1049 9.89812 15.1864 9.72093C15.7934 10.2973 16.4615 11.2892 16.2272 12.7556C16.1885 13 16.0296 13.3828 15.8117 13.7556L15.8137 13.7535Z" fill="#E30613"/>
<path d="M9.27535 13.7189C9.66643 13.6578 10.1777 13.4521 10.6828 13.1568C10.9619 12.9938 11.0535 12.6354 10.8906 12.3564C10.7276 12.0773 10.3692 11.9857 10.0901 12.1486C9.71735 12.3666 9.33442 12.5254 9.08999 12.5641C7.62344 12.7963 6.63148 12.1303 6.05504 11.5234C6.23225 11.4419 6.39927 11.3543 6.5663 11.2688C6.96553 11.0611 7.34235 10.8655 7.79861 10.7739C9.63587 10.4032 10.2958 11.0977 10.9945 11.8309C10.9985 11.835 11.0026 11.8391 11.0067 11.8431L11.4181 12.2505C11.6483 12.4765 12.017 12.4745 12.2451 12.2464C12.4712 12.0162 12.4692 11.6476 12.241 11.4195L11.8357 11.0183C10.8865 10.0244 9.84567 9.17103 7.56844 9.62724C6.94923 9.75148 6.46038 10.0061 6.02652 10.2301C5.67211 10.4154 5.33602 10.5885 4.96327 10.6761C4.77792 10.7189 4.62515 10.8492 4.55386 11.0264C4.48257 11.2036 4.5009 11.4032 4.60478 11.5621C4.96327 12.1181 6.23021 13.78 8.49726 13.78C8.74372 13.78 9.0024 13.7596 9.27127 13.7169L9.27535 13.7189Z" fill="#E30613"/>
<path d="M11.5648 4.60688C11.4059 4.50301 11.2043 4.48468 11.0291 4.55596C10.8519 4.62724 10.7215 4.77999 10.6788 4.96533C10.5932 5.33804 10.418 5.67409 10.2327 6.02847C10.0086 6.46024 9.75401 6.95107 9.62976 7.57022C9.54625 7.98773 9.50348 8.38284 9.50551 8.74537C9.50551 9.06716 9.76827 9.32785 10.0901 9.32785C10.4119 9.32785 10.6726 9.06513 10.6726 8.7413C10.6726 8.4582 10.7052 8.14048 10.7745 7.80036C10.8661 7.34415 11.0617 6.96737 11.2695 6.56818C11.355 6.40117 11.4426 6.23417 11.5241 6.05698C12.1311 6.63335 12.7991 7.62521 12.5649 9.0916C12.5262 9.336 12.3673 9.71889 12.1494 10.0916C11.9864 10.3706 12.0801 10.727 12.3571 10.892C12.4508 10.947 12.5506 10.9714 12.6525 10.9714C12.8521 10.9714 13.0476 10.8676 13.1576 10.6822C13.453 10.1792 13.6587 9.66594 13.7198 9.2749C14.1577 6.52134 12.1799 5.00606 11.5628 4.60891L11.5648 4.60688Z" fill="#E30613"/>
<path d="M3.91021 5.96533C3.291 6.08957 2.80215 6.34415 2.36829 6.56818C2.01387 6.75352 1.67779 6.92663 1.30504 7.01421C1.11968 7.05698 0.966919 7.18733 0.895628 7.36451C0.824338 7.5417 0.84267 7.7413 0.94655 7.90016C1.30504 8.45616 2.57198 10.1181 4.83902 10.1181C5.08549 10.1181 5.34417 10.0977 5.61304 10.0549C6.00412 9.99384 6.51538 9.78814 7.02052 9.49282C7.29957 9.32989 7.39327 8.97144 7.22828 8.69242C7.06533 8.41339 6.70684 8.32174 6.42779 8.48468C6.05504 8.7026 5.67211 8.86146 5.42768 8.90016C3.96113 9.13234 2.96917 8.46635 2.39273 7.85942C2.56994 7.77796 2.73697 7.69038 2.90399 7.60484C3.30322 7.3971 3.68004 7.20158 4.1363 7.10993C5.97357 6.7413 6.63351 7.43376 7.33216 8.16696C7.33624 8.17103 7.34031 8.17511 7.34438 8.17918L7.75583 8.58651C7.986 8.81258 8.35468 8.81054 8.58281 8.58244C8.8089 8.35229 8.80686 7.98366 8.57873 7.75555L8.17339 7.35433C7.22421 6.36044 6.18336 5.50708 3.90613 5.96329L3.91021 5.96533Z" fill="#E30613"/>
<path d="M7.90249 0.944963C7.74361 0.841093 7.54196 0.822763 7.36679 0.894046C7.18958 0.96533 7.05922 1.11808 7.01645 1.30342C6.9309 1.67612 6.75573 2.01217 6.57037 2.36655C6.34631 2.79832 6.0917 3.28916 5.96745 3.9083C5.88394 4.32582 5.84117 4.72093 5.84321 5.08346C5.84321 5.40525 6.10596 5.66594 6.42779 5.66594C6.74962 5.66594 7.01034 5.40321 7.01034 5.07938C7.01034 4.79629 7.04293 4.47857 7.11218 4.13845C7.20384 3.68223 7.39938 3.30545 7.60714 2.90627C7.69269 2.73926 7.78028 2.57225 7.86175 2.39506C8.46874 2.97144 9.13684 3.96329 8.9026 5.42969C8.8639 5.67409 8.70502 6.05698 8.48707 6.42969C8.32412 6.70871 8.41782 7.06513 8.69483 7.2301C8.78853 7.28509 8.88834 7.30952 8.99018 7.30952C9.1898 7.30952 9.38534 7.20566 9.49533 7.02032C9.79068 6.51726 9.9964 6.00403 10.0575 5.61299C10.4954 2.85942 8.51763 1.34415 7.90045 0.947L7.90249 0.944963Z" fill="#E30613"/>
<path d="M0.184989 1.56431C0.488484 2.69873 0.904007 4.25067 1.64136 4.98794C1.97744 5.32399 2.39704 5.60708 2.8533 5.80668C2.92866 5.83926 3.0081 5.85556 3.0855 5.85556C3.3116 5.85556 3.52547 5.72521 3.6212 5.50525C3.74953 5.20994 3.61509 4.86574 3.31974 4.73539C2.99588 4.59486 2.70257 4.39731 2.46833 4.16309C1.96522 3.66004 1.57414 2.23438 1.33379 1.33621C2.23205 1.57653 3.65787 1.96757 4.16098 2.47063C4.39522 2.70484 4.59279 2.99812 4.73334 3.32195C4.86166 3.61727 5.20589 3.75169 5.50328 3.62338C5.79863 3.49507 5.9351 3.15087 5.80474 2.85352C5.60512 2.39731 5.32403 1.97979 4.98795 1.64171C4.24856 0.904437 2.69646 0.488958 1.56396 0.185496C1.35212 0.12847 1.16065 0.0775532 1.00789 0.0327467C0.73291 -0.0487197 0.435525 0.0266367 0.231838 0.230303C0.0261129 0.433969 -0.0492516 0.731321 0.0322235 1.00627C0.0790717 1.16106 0.127957 1.35047 0.184989 1.56431Z" fill="#E30613"/>
</svg>
