<svg width="20" height="20" viewBox="0 0 20 20" fill="none" xmlns="http://www.w3.org/2000/svg">
<path d="M5.23342 14.6085C6.29818 15.7143 7.71528 16.325 9.22046 16.325C10.7256 16.325 12.1427 15.7169 13.2075 14.6085C15.407 12.3244 15.407 8.60906 13.2075 6.32496L9.74637 2.73067C9.60647 2.58539 9.41735 2.50468 9.22046 2.50468C9.02357 2.50468 8.83445 2.58539 8.69456 2.73067L5.23342 6.32496C3.03394 8.60906 3.03394 12.3244 5.23342 14.6085ZM6.28523 13.5162C4.66606 11.8348 4.66606 9.0987 6.28523 7.41724L9.22305 4.36639L12.1609 7.41724C13.78 9.0987 13.78 11.8348 12.1609 13.5162C11.3759 14.3314 10.3345 14.7807 9.22305 14.7807C8.11166 14.7807 7.0702 14.3314 6.28523 13.5162Z" fill="#E30613"/>
<path d="M11.7179 9.80896C11.3085 9.80896 10.9744 10.1533 10.9744 10.5811C10.9744 11.5577 10.2101 12.3513 9.26969 12.3513C8.86036 12.3513 8.52616 12.6957 8.52616 13.1235C8.52616 13.5512 8.85777 13.8956 9.26969 13.8956C11.0288 13.8956 12.4614 12.4078 12.4614 10.5811C12.4614 10.156 12.1298 9.80896 11.7179 9.80896Z" fill="#E30613"/>
<path d="M1.2386 7.02176C1.53394 7.07826 1.81632 6.87379 1.87072 6.56709C1.92513 6.26039 1.72824 5.96715 1.4329 5.91065C1.13756 5.85415 0.855179 6.05862 0.800774 6.36532C0.74637 6.67202 0.943262 6.96526 1.2386 7.02176Z" fill="#E30613"/>
<path d="M3.04171 4.1135C3.37072 4.17538 3.68678 3.94939 3.74637 3.60503C3.80596 3.26335 3.58834 2.93513 3.25673 2.87325C2.92772 2.81138 2.61166 3.03737 2.55207 3.38173C2.49248 3.7234 2.7101 4.05162 3.04171 4.1135Z" fill="#E30613"/>
<path d="M5.79818 2.16569C6.16347 2.23564 6.51062 1.98275 6.57798 1.6061C6.64533 1.22677 6.40181 0.863569 6.03912 0.79631C5.67383 0.726361 5.32668 0.979254 5.25932 1.3559C5.19197 1.73524 5.43549 2.09575 5.79818 2.16569Z" fill="#E30613"/>
<path d="M9.09093 1.51463C9.48989 1.58996 9.87331 1.31555 9.94585 0.901234C10.0184 0.486921 9.75414 0.0887504 9.35518 0.0134209C8.95621 -0.0619087 8.5728 0.212506 8.50026 0.626819C8.42772 1.04113 8.69197 1.4393 9.09093 1.51463Z" fill="#E30613"/>
<path d="M12.3966 2.20605C12.8293 2.28676 13.2464 1.98813 13.3241 1.53884C13.4018 1.08956 13.1142 0.656413 12.6816 0.575702C12.249 0.494992 11.8319 0.79362 11.7541 1.24291C11.6764 1.69219 11.964 2.12534 12.3966 2.20605Z" fill="#E30613"/>
<path d="M15.2412 4.17807C15.7101 4.26685 16.1583 3.94401 16.2438 3.45706C16.3293 2.97011 16.0184 2.50468 15.5495 2.4159C15.0806 2.32711 14.6324 2.64996 14.5469 3.13691C14.4614 3.62386 14.7723 4.08929 15.2412 4.17807Z" fill="#E30613"/>
<path d="M17.1402 7.11323C17.6427 7.2074 18.1246 6.86034 18.2179 6.33841C18.3111 5.81649 17.9744 5.31608 17.4718 5.21923C16.9692 5.12238 16.4873 5.47212 16.394 5.99405C16.3008 6.51598 16.6376 7.01638 17.1402 7.11323Z" fill="#E30613"/>
<path d="M17.0365 9.42424C16.9381 9.98383 17.2956 10.5192 17.8345 10.6187C18.3733 10.721 18.8889 10.3497 18.9847 9.79012C19.0832 9.23053 18.7256 8.69515 18.1868 8.59561C17.6479 8.49338 17.1324 8.86465 17.0365 9.42424Z" fill="#E30613"/>
<path d="M17.2231 14.1054C17.7956 14.213 18.3448 13.8203 18.4484 13.2257C18.5521 12.6311 18.1738 12.0608 17.6013 11.9532C17.0288 11.8455 16.4795 12.2383 16.3759 12.8329C16.2723 13.4275 16.6505 13.9978 17.2231 14.1054Z" fill="#E30613"/>
<path d="M15.7878 14.8345C15.1816 14.7188 14.5987 15.1385 14.4873 15.7681C14.3759 16.3976 14.7801 17.0029 15.3863 17.1186C15.9925 17.2343 16.5754 16.8146 16.6868 16.1851C16.7982 15.5555 16.394 14.9502 15.7878 14.8345Z" fill="#E30613"/>
<path d="M11.6453 17.7508C11.5288 18.4181 11.9536 19.0557 12.5961 19.1767C13.2386 19.2978 13.8526 18.8566 13.9692 18.1894C14.0857 17.5222 13.6609 16.8846 13.0184 16.7635C12.3759 16.6424 11.7619 17.0836 11.6453 17.7508Z" fill="#E30613"/>
<path d="M9.73083 17.4334C9.05466 17.3042 8.4044 17.7724 8.28264 18.4745C8.15829 19.1767 8.60907 19.852 9.28523 19.9784C9.9614 20.1076 10.6117 19.6395 10.7334 18.9373C10.8578 18.2351 10.407 17.5598 9.73083 17.4334Z" fill="#E30613"/>
<path d="M4.92513 17.8396C4.79559 18.5795 5.2671 19.287 5.97953 19.4215C6.69197 19.5561 7.37331 19.0664 7.50285 18.3266C7.63238 17.5867 7.16088 16.8792 6.44844 16.7447C5.73601 16.6101 5.05466 17.0998 4.92513 17.8396Z" fill="#E30613"/>
<path d="M1.99507 15.9483C1.86036 16.7231 2.35518 17.4657 3.10129 17.6056C3.84741 17.7455 4.56243 17.2316 4.69974 16.4568C4.83704 15.682 4.33963 14.9394 3.59352 14.7995C2.84741 14.6596 2.13238 15.1735 1.99767 15.9483H1.99507Z" fill="#E30613"/>
<path d="M1.1816 14.7726C1.9614 14.9206 2.7101 14.3825 2.85259 13.5701C2.99508 12.7603 2.47694 11.9828 1.69456 11.8348C0.914764 11.6868 0.166059 12.2249 0.0235723 13.0374C-0.118915 13.8498 0.39922 14.6247 1.1816 14.7726Z" fill="#E30613"/>
</svg>
