<svg width="17" height="17" viewBox="0 0 17 17" fill="none" xmlns="http://www.w3.org/2000/svg">
<path d="M1.64786 17H15.3501C15.9367 17 16.4679 16.7079 16.7656 16.2202C17.0612 15.7369 17.0745 15.1526 16.8012 14.6586L12.1723 5.50986V2.31135C12.5279 2.07291 12.7456 1.70129 12.7456 1.291C12.7456 0.577837 12.0834 0 11.2679 0H5.73008C4.91452 0 4.2523 0.579985 4.2523 1.291C4.2523 1.70129 4.47008 2.07291 4.82563 2.31135V5.50986L0.196746 14.6586C-0.0765869 15.1526 -0.0654758 15.7369 0.232302 16.2202C0.532302 16.7079 1.06119 17 1.64786 17ZM10.9634 5.92444L15.6634 15.2128C15.6634 15.2128 15.6723 15.23 15.6767 15.2386C15.7679 15.3997 15.7034 15.5414 15.6701 15.593C15.6367 15.6467 15.5412 15.7691 15.3501 15.7691H1.64786C1.45675 15.7691 1.36119 15.6467 1.32786 15.593C1.29452 15.5393 1.23008 15.3997 1.32119 15.2386C1.32564 15.23 1.33008 15.2214 1.33452 15.2128L6.03452 5.92444C6.07675 5.84066 6.09897 5.74829 6.09897 5.65378V1.92899C6.09897 1.65188 5.90786 1.4113 5.63452 1.33611C5.58786 1.32322 5.55675 1.30389 5.53897 1.291C5.56786 1.26737 5.6323 1.233 5.72786 1.233H11.2656C11.3634 1.233 11.4256 1.26737 11.4567 1.291C11.439 1.30604 11.4101 1.32322 11.3612 1.33611C11.0856 1.4113 10.8967 1.65403 10.8967 1.92899V5.65378C10.8967 5.74829 10.919 5.84066 10.9612 5.92444H10.9634Z" fill="#E30613"/>
<path d="M8.49899 4.00834C8.2701 4.00834 8.06121 4.12648 7.94565 4.31766C7.61899 4.86543 4.75676 9.72012 4.75676 11.4923C4.75676 13.4857 6.43454 15.1097 8.49899 15.1097C10.5634 15.1097 12.2412 13.4879 12.2412 11.4923C12.2412 9.72226 9.37899 4.86543 9.05232 4.31766C8.93899 4.12648 8.72787 4.00834 8.49899 4.00834ZM6.03232 11.4901C6.03232 10.5643 7.37899 7.87276 8.49899 5.88577C9.61899 7.87276 10.9657 10.5622 10.9657 11.4901C10.9657 12.8048 9.85898 13.8745 8.49899 13.8745C7.13899 13.8745 6.03232 12.8048 6.03232 11.4901Z" fill="#E30613"/>
<path d="M9.83676 10.9682C9.50121 10.8672 9.14343 11.0476 9.03899 11.372C8.94565 11.6577 8.73454 11.9004 8.45676 12.0379C8.14343 12.1926 8.01899 12.5642 8.17899 12.8671C8.29232 13.0797 8.51454 13.2043 8.74787 13.2043C8.84565 13.2043 8.94343 13.1828 9.03676 13.1377C9.61899 12.852 10.0634 12.3429 10.2568 11.7415C10.3612 11.4171 10.1745 11.0713 9.83899 10.9703L9.83676 10.9682Z" fill="#E30613"/>
<path d="M8.49899 2.99659C8.8501 2.99659 9.13676 2.72163 9.13676 2.38009C9.13676 2.03854 8.85232 1.76358 8.49899 1.76358C8.14565 1.76358 7.86121 2.03854 7.86121 2.38009C7.86121 2.72163 8.14565 2.99659 8.49899 2.99659Z" fill="#E30613"/>
</svg>
