<svg width="20" height="18" viewBox="0 0 20 18" fill="none" xmlns="http://www.w3.org/2000/svg">
<path d="M16.9462 4.70929C16.6803 4.76353 16.4763 4.97812 16.4259 5.25167C16.1439 6.84109 14.8603 8.03432 13.2993 8.16402C13.0724 8.14988 12.9165 8.14988 12.6804 8.16638C10.1842 8.34325 8.22898 10.501 8.22898 13.0761C8.22898 14.8778 9.18482 16.5332 10.7229 17.3987C10.7389 17.4081 10.755 17.4175 10.771 17.4246L10.7871 17.434C10.826 17.4553 10.8673 17.4765 10.9063 17.4977C11.3647 17.7288 11.8552 17.8821 12.3618 17.9552L12.4191 17.9623C12.4925 17.9717 12.5681 17.9788 12.646 17.9859H12.6667C12.6873 17.9906 12.7102 17.9906 12.7308 17.9929C12.8134 17.9976 12.8959 18 12.9669 18C12.983 18 13.0013 18 13.0174 18C13.0334 18 13.0472 18 13.0655 18C13.1457 18 13.2237 17.9953 13.3039 17.9906C13.3245 17.9906 13.3474 17.9882 13.3681 17.9859H13.391C13.4666 17.9788 13.5423 17.9693 13.6156 17.9599H13.6317L13.6684 17.9552C14.1772 17.8844 14.6678 17.7312 15.1239 17.5001C15.1652 17.4788 15.2041 17.4576 15.2454 17.4364L15.2614 17.4293C15.2775 17.4199 15.2958 17.4105 15.3027 17.4081C17.5513 16.1842 19.0046 13.3049 19.0046 10.0718C19.0046 8.22534 18.5163 6.4284 17.6339 5.01114C17.4872 4.77768 17.2167 4.65977 16.9531 4.714L16.9462 4.70929ZM14.6288 16.2384C14.6013 16.2549 14.5715 16.2691 14.5417 16.2832C14.2116 16.4507 13.8563 16.5615 13.485 16.6134L13.4483 16.6181C13.3933 16.6252 13.3383 16.6299 13.2833 16.6346L13.2214 16.6393C13.1618 16.6417 13.0999 16.644 13.0357 16.6464H12.983C12.9211 16.6464 12.8615 16.644 12.8019 16.6393L12.7423 16.6346C12.6873 16.6299 12.63 16.6252 12.5796 16.6181L12.5383 16.6134C12.1693 16.5615 11.8163 16.4507 11.4839 16.2832C11.4541 16.2691 11.4266 16.2526 11.3991 16.2384L11.3509 16.2125C10.2346 15.5852 9.54241 14.3826 9.54241 13.0761C9.54241 11.2084 10.959 9.64496 12.7698 9.51526C12.8638 9.50819 12.9417 9.50583 13.0128 9.50583C13.0838 9.50583 13.1618 9.50819 13.2558 9.51526C13.2856 9.51526 13.3154 9.51526 13.3452 9.51526C14.9703 9.39971 16.3846 8.45172 17.1617 7.0604C17.5009 7.9848 17.682 9.01297 17.682 10.0671C17.682 12.7625 16.4763 15.2291 14.6723 16.2125L14.6265 16.2361L14.6288 16.2384Z" fill="#E30613"/>
<path d="M14.1841 14.2788C13.9067 14.5641 13.5377 14.7221 13.1434 14.7221C12.7492 14.7221 12.3801 14.5641 12.1028 14.2788C11.8461 14.0147 11.4289 14.0147 11.1722 14.2788C10.9154 14.5429 10.9154 14.9721 11.1722 15.2362C11.6994 15.7786 12.3985 16.0757 13.1412 16.0757C13.8838 16.0757 14.5852 15.7786 15.1101 15.2362C15.3669 14.9721 15.3669 14.5429 15.1101 14.2788C14.8534 14.0147 14.4362 14.0147 14.1795 14.2788H14.1841Z" fill="#E30613"/>
<path d="M16.0293 3.98061C16.3926 3.98061 16.6872 3.6776 16.6872 3.30381C16.6872 2.93003 16.3926 2.62701 16.0293 2.62701C15.666 2.62701 15.3715 2.93003 15.3715 3.30381C15.3715 3.6776 15.666 3.98061 16.0293 3.98061Z" fill="#E30613"/>
<path d="M10.771 4.92388C10.771 3.12223 9.81518 1.46679 8.27482 0.598978L8.21523 0.565964C8.17626 0.54474 8.135 0.523516 8.09374 0.502293C7.6353 0.271191 7.14477 0.117909 6.64049 0.0471636L6.58547 0.0400891C6.50983 0.0306564 6.43419 0.0235818 6.35855 0.0165073L6.27374 0.00943273C6.1958 0.00471636 6.11787 0.00235818 6.03306 0C6.00326 0 5.96429 0 5.95054 0C5.86802 0 5.7855 0.00235818 5.70069 0.00943273L5.61817 0.0165073C5.54253 0.0235818 5.46688 0.0306564 5.39353 0.0400891L5.33623 0.0471636C4.82736 0.117909 4.33912 0.271191 3.87839 0.504651C3.83713 0.525874 3.79817 0.547098 3.76378 0.565964L3.70419 0.598978C1.45325 1.82052 0 4.69986 0 7.93292C0 9.77938 0.488238 11.5763 1.37073 12.9936C1.49222 13.1893 1.7031 13.3049 1.92315 13.3049C1.96441 13.3049 2.00796 13.3001 2.05151 13.2931C2.31741 13.2388 2.52141 13.0242 2.57184 12.7507C2.85378 11.1613 4.13741 9.96803 5.6984 9.83833C5.92532 9.85248 6.08119 9.85248 6.31729 9.83597C8.81349 9.65911 10.7687 7.50138 10.7687 4.92624L10.771 4.92388ZM5.74195 8.48474C5.71215 8.48474 5.68235 8.48474 5.65255 8.48474C4.02739 8.60029 2.6131 9.54828 1.83605 10.9396C1.4968 10.0152 1.31572 8.98703 1.31572 7.93292C1.31572 5.23752 2.52141 2.77086 4.32308 1.78986L4.37351 1.76392C4.40101 1.74741 4.43081 1.73326 4.45832 1.71911C4.79069 1.55168 5.14368 1.44085 5.51502 1.38897L5.5517 1.38425C5.60671 1.37718 5.65943 1.37246 5.71444 1.36775L5.77633 1.36303C5.83593 1.36067 5.89782 1.35831 5.95283 1.35595C5.96429 1.35595 5.97346 1.35595 5.98492 1.35595C5.99638 1.35595 6.00555 1.35595 6.01243 1.35595C6.07432 1.35595 6.13391 1.35831 6.19122 1.36303L6.25769 1.36775C6.3127 1.37246 6.36772 1.37718 6.42502 1.38425L6.4617 1.38897C6.83074 1.44085 7.18374 1.55168 7.51611 1.71911C7.54591 1.73326 7.57341 1.74977 7.6055 1.76628L7.64905 1.78986C8.76535 2.41714 9.45759 3.61981 9.45759 4.92624C9.45759 6.79392 8.04102 8.3574 6.23019 8.4871C6.03993 8.50124 5.9322 8.50124 5.74195 8.4871V8.48474Z" fill="#E30613"/>
<path d="M7.36024 3.9193C7.52757 3.9193 7.69719 3.85327 7.82555 3.72121C8.08228 3.45709 8.08228 3.0279 7.82555 2.76379C6.73905 1.64601 4.97177 1.64601 3.88527 2.76379C3.62854 3.0279 3.62854 3.45709 3.88527 3.72121C4.142 3.98533 4.55918 3.98533 4.8159 3.72121C5.38895 3.13166 6.32187 3.13166 6.89721 3.72121C7.02558 3.85327 7.19291 3.9193 7.36253 3.9193H7.36024Z" fill="#E30613"/>
<path d="M2.96839 14.0194C2.60623 14.0194 2.31053 14.3212 2.31053 14.6962C2.31053 15.0711 2.60393 15.373 2.96839 15.373C3.33285 15.373 3.62625 15.0711 3.62625 14.6962C3.62625 14.3212 3.33285 14.0194 2.96839 14.0194Z" fill="#E30613"/>
</svg>
