<svg width="25" height="19" viewBox="0 0 25 19" fill="none" xmlns="http://www.w3.org/2000/svg">
<g clip-path="url(#clip0_161_3369)">
<path d="M9.38154 14.3618L12.5991 12.6803L12.6217 12.5795C12.6834 12.3014 12.732 12.0117 12.7664 11.7178L12.8145 11.3087L8.89252 13.3584C7.94487 13.8535 7.29588 14.7943 7.15598 15.8745L7.15537 15.8783C7.02977 16.9999 6.05567 17.8782 4.93833 17.8782C4.69777 17.8782 4.46299 17.8357 4.23976 17.7523L4.23216 17.7497C3.32679 17.4493 2.7228 16.518 2.72949 15.5568L2.81586 14.9621C2.8183 14.9457 2.8335 14.8869 2.85114 14.8169L2.93234 14.4998L2.61302 14.3691L2.56679 14.2516L2.54246 14.3401L2.48376 14.3162C1.66537 13.9795 1.13012 13.2016 1.08663 12.286C1.04344 11.3764 1.50024 10.5528 2.27848 10.1371C2.59355 9.96796 2.94694 9.87883 3.30033 9.87883C3.67349 9.87883 4.04421 9.97772 4.37266 10.1648C4.84071 10.4313 5.37109 10.5723 5.90696 10.5723C6.40784 10.5723 6.91025 10.4483 7.35944 10.2133L12.3209 7.62032L12.2403 7.42915C12.1442 7.20112 12.0374 6.98759 11.9231 6.79515L11.8206 6.62256L6.87041 9.20956C6.57207 9.36546 6.23906 9.44798 5.90696 9.44798C5.55357 9.44798 5.20383 9.35538 4.89575 9.17964C4.40733 8.90122 3.85566 8.75414 3.30033 8.75414C2.7739 8.75414 2.24777 8.88705 1.77942 9.13838C0.667247 9.73049 0.00182877 10.8634 4.04141e-06 12.1688C-0.000908323 12.7833 0.152673 13.3839 0.444325 13.9064C0.734457 14.4267 1.15779 14.8572 1.67267 15.1577C1.55619 16.0922 1.83112 17.0427 2.43632 17.7838C3.06737 18.5563 3.97426 18.9995 4.92556 18.9995H4.95201C4.96509 18.9995 4.97847 18.9995 4.99185 18.9995C6.59427 18.9995 8.04736 17.6641 8.23227 16.0226C8.32502 15.3101 8.75475 14.6894 9.38185 14.3618H9.38154Z" fill="#E30613"/>
<path d="M14.0703 11.5347L14.0371 11.929L15.2299 11.3057L15.2548 11.2115C15.3299 10.929 15.3911 10.632 15.437 10.3293L15.5012 9.90479L14.1095 10.632L14.1077 10.7655C14.104 11.0219 14.0915 11.2805 14.0703 11.5347Z" fill="#E30613"/>
<path d="M24.6244 5.24109C24.3273 4.65118 23.8784 4.17089 23.3216 3.84523C23.4371 2.88778 23.1704 1.96182 22.564 1.22516C21.9232 0.446599 21.0017 0 20.0355 0C19.534 0 19.045 0.120626 18.5831 0.357783C17.5904 0.862648 16.9101 1.84246 16.7629 2.97848C16.6893 3.5476 16.391 4.07546 15.9442 4.42662L15.7988 4.54095L15.8855 4.70725C15.9856 4.89874 16.0795 5.10314 16.165 5.31447L16.2663 5.56517L16.4822 5.41084C17.2249 4.88015 17.7194 4.04805 17.8383 3.12777C17.9371 2.36433 18.3942 1.70577 19.0611 1.36657C19.3723 1.20846 19.7025 1.12815 20.0428 1.12815C20.2855 1.12815 20.5264 1.16972 20.7581 1.25193L20.7621 1.25319C21.6681 1.55396 22.2721 2.48622 22.2648 3.44807L22.1784 4.04081C22.176 4.05719 22.1607 4.11671 22.1431 4.186L22.0616 4.50316L22.3767 4.63229L22.4253 4.75795L22.4515 4.66284L22.5135 4.68803C23.5831 5.10345 24.1789 6.3979 23.8146 7.51471L23.8121 7.52258C23.5415 8.46586 22.6595 9.12442 21.6678 9.12442C21.298 9.12442 20.9373 9.02616 20.6243 8.84034L20.621 8.83845C20.1532 8.572 19.6225 8.4309 19.087 8.4309C18.5861 8.4309 18.084 8.55499 17.6345 8.78994L16.817 9.21702L16.8122 9.34678C16.8024 9.60787 16.783 9.86991 16.7547 10.1263L16.7097 10.5322L18.1235 9.79338C18.4219 9.63748 18.7552 9.55496 19.087 9.55496C19.4404 9.55496 19.7898 9.64755 20.0979 9.8233C20.5863 10.1014 21.138 10.2488 21.6936 10.2488C22.2191 10.2488 22.745 10.1159 23.2139 9.86455C23.9785 9.4737 24.5718 8.74176 24.8422 7.85612C25.1129 6.96985 25.0332 6.01681 24.6241 5.24077L24.6244 5.24109Z" fill="#E30613"/>
<path d="M14.8982 5.62061C14.8529 5.52014 14.8055 5.42188 14.7568 5.32897L14.6583 5.14062L12.9707 6.02249L13.0844 6.22468C13.1888 6.41019 13.2867 6.60798 13.3758 6.81238L13.4673 7.02214L15.1135 6.16169L15.0439 5.97524C14.998 5.8521 14.949 5.73305 14.8985 5.62061H14.8982Z" fill="#E30613"/>
<path d="M16.0012 5.09146C15.3452 3.57466 14.2011 2.63232 13.0159 2.63232C12.1796 2.63232 11.3849 3.09089 10.7183 3.95826L10.5039 4.23731L10.8406 4.31132C11.0708 4.36203 11.2977 4.44738 11.5151 4.56517L11.662 4.64454L11.7724 4.51667C12.1647 4.06283 12.5847 3.8326 13.0205 3.8326C13.6777 3.8326 14.3246 4.35636 14.7948 5.2694C15.3321 6.31346 15.5888 7.47657 15.6025 8.93007C15.6104 9.91114 15.4374 10.9681 15.1278 11.8298C14.7729 12.8178 14.2592 13.5233 13.6427 13.8701L13.5731 13.9091L13.5451 13.9856C13.4302 14.3003 13.2982 14.5989 13.1528 14.8735L12.949 15.2584L13.3687 15.1976C14.5621 15.025 15.337 14.02 15.7771 13.2074C16.3345 12.1778 16.6849 10.8453 16.739 9.55115C16.8302 7.93829 16.5675 6.35346 16.0009 5.09114L16.0012 5.09146Z" fill="#E30613"/>
<path d="M13.8401 8.51052C13.6214 7.42804 13.1226 5.93391 11.9858 4.96072C11.4895 4.54687 10.9023 4.31885 10.3314 4.31885H10.3165C9.43761 4.33334 8.62804 4.80639 7.976 5.68762C7.42493 6.43185 7.00403 7.44725 6.79114 8.54674L6.70508 8.99113L8.03743 8.29478L8.06298 8.20187C8.26127 7.48095 8.57482 6.81955 8.94584 6.33988C9.36249 5.801 9.83297 5.51629 10.3065 5.51629C10.4987 5.51629 10.6967 5.56259 10.8944 5.65424C11.3736 5.8936 11.797 6.37484 12.1519 7.08254C13.1184 9.07302 13.1509 11.9073 12.2307 13.9759C11.665 15.2558 10.8691 15.7122 10.3129 15.7122C9.92481 15.7122 9.5401 15.5204 9.16937 15.1421L8.99663 14.9657L8.85035 15.166C8.67244 15.4095 8.55231 15.6961 8.50335 15.9953L8.48328 16.1181L8.57451 16.1994C9.09274 16.6608 9.68973 16.9046 10.3007 16.9046C11.2642 16.9046 12.1869 16.3188 12.8316 15.299C13.3073 14.5629 13.6412 13.6965 13.8528 12.6505C14.1141 11.3504 14.1095 9.8415 13.8407 8.5102L13.8401 8.51052Z" fill="#E30613"/>
</g>
<defs>
<clipPath id="clip0_161_3369">
<rect width="25" height="19" fill="white"/>
</clipPath>
</defs>
</svg>
