<svg width="30" height="21" viewBox="0 0 30 21" fill="none" xmlns="http://www.w3.org/2000/svg">
<path d="M19.4968 14.9125H17.8433V16.6591H19.4968V14.9125Z" fill="#E30613"/>
<path d="M12.825 14.9125H11.1715V16.6591H12.825V14.9125Z" fill="#E30613"/>
<path d="M16.1609 11.3464H14.5074V13.093H16.1609V11.3464Z" fill="#E30613"/>
<path d="M12.825 4.31462H11.1715V6.06116H12.825V4.31462Z" fill="#E30613"/>
<path d="M19.4968 3.02754H17.8433V4.77408H19.4968V3.02754Z" fill="#E30613"/>
<path d="M16.1609 0H14.5074V1.74654H16.1609V0Z" fill="#E30613"/>
<path d="M29.1732 18.2565H25.7163L15.9564 6.42629C15.8008 6.23764 15.5733 6.1281 15.3342 6.1281C15.0951 6.1281 14.8675 6.23764 14.7119 6.42629L4.94911 18.2565H0.826772C0.371615 18.2565 0 18.646 0 19.1298C0 19.6136 0.368734 20.003 0.826772 20.003H29.1732C29.6284 20.003 30 19.6136 30 19.1298C30 18.646 29.6313 18.2565 29.1732 18.2565ZM7.14135 18.2565L15.3342 8.33105L23.527 18.2565H7.14135Z" fill="#E30613"/>
</svg>
