<svg width="81" height="72" viewBox="0 0 81 72" fill="none" xmlns="http://www.w3.org/2000/svg">
<path d="M67.5195 24.0969C55.2872 6.59133 35.1181 10.5532 26.5625 14.7223C5.07657 25.9502 10.501 43.3321 14.0821 50.5129C17.6632 57.6937 25.0085 59.2866 26.9795 59.7653C28.9504 60.2441 40.4375 59.9744 45.6952 59.339C49.9013 58.8308 55.0724 57.1544 57.1322 56.3798C65.6914 52.9128 79.2576 40.8951 67.5195 24.0969Z" fill="#F4DED3"/>
<path d="M42 1C42 0.447715 41.5523 -2.41411e-08 41 0C40.4477 2.41411e-08 40 0.447715 40 1L42 1ZM40.2929 44.7071C40.6834 45.0976 41.3166 45.0976 41.7071 44.7071L48.0711 38.3431C48.4616 37.9526 48.4616 37.3195 48.0711 36.9289C47.6805 36.5384 47.0474 36.5384 46.6569 36.9289L41 42.5858L35.3431 36.9289C34.9526 36.5384 34.3195 36.5384 33.9289 36.9289C33.5384 37.3195 33.5384 37.9526 33.9289 38.3431L40.2929 44.7071ZM40 1L40 44L42 44L42 1L40 1Z" fill="#393939"/>
</svg>
