<svg width="23" height="24" viewBox="0 0 23 24" fill="none" xmlns="http://www.w3.org/2000/svg">
<path d="M5.18116 7.87219H0.754883V23.1235H5.18116V7.87219Z" fill="#EC4E4B"/>
<path fill-rule="evenodd" clip-rule="evenodd" d="M22.5972 12.8425V23.1237H18.1709V14.9185C18.1709 13.347 16.9099 12.0633 15.3658 12.0633C13.822 12.0633 12.5544 13.347 12.5544 14.9185V23.1237H8.12793V7.87239H12.5544V10.1252C13.7703 7.98378 16.2473 6.92966 18.6019 7.56478C20.95 8.19991 22.5905 10.3676 22.597 12.8427L22.5972 12.8425Z" fill="#EC4E4B"/>
<path fill-rule="evenodd" clip-rule="evenodd" d="M2.96817 5.53426C4.43498 5.53426 5.63172 4.31615 5.63172 2.82313C5.63172 1.3301 4.43498 0.105591 2.96817 0.105591C1.50136 0.105591 0.29834 1.32371 0.29834 2.82313C0.29834 4.32255 1.49507 5.53426 2.96817 5.53426Z" fill="#EC4E4B"/>
</svg>
