<svg width="30" height="21" viewBox="0 0 30 21" fill="none" xmlns="http://www.w3.org/2000/svg">
<path d="M29.2391 7.46135C29.3028 5.61668 28.8994 3.78582 28.0663 2.13876C27.5011 1.46293 26.7166 1.00685 25.8497 0.849998C22.2637 0.524618 18.6629 0.391256 15.0627 0.450482C11.4757 0.388568 7.88783 0.517626 4.31447 0.837111C3.60799 0.965621 2.9542 1.29699 2.43288 1.79079C1.27299 2.86047 1.14411 4.69051 1.01524 6.23702C0.828254 9.01761 0.828254 11.8076 1.01524 14.5882C1.05252 15.4586 1.18212 16.3227 1.40187 17.1657C1.55726 17.8166 1.87165 18.4188 2.31689 18.9184C2.84176 19.4384 3.51078 19.7886 4.23714 19.9237C7.0156 20.2666 9.81518 20.4088 12.6141 20.349C17.1248 20.4134 21.0813 20.349 25.7595 19.9881C26.5037 19.8614 27.1915 19.5107 27.7313 18.9829C28.0921 18.6219 28.3616 18.1801 28.5174 17.6941C28.9783 16.2798 29.2047 14.7997 29.1876 13.3123C29.2391 12.5906 29.2391 8.2346 29.2391 7.46135ZM12.1501 14.0856V6.10815L19.7796 10.1162C17.6403 11.3019 14.8179 12.6422 12.1501 14.0856Z" fill="#EC4947"/>
</svg>
