<svg width="20" height="24" viewBox="0 0 20 24" fill="none" xmlns="http://www.w3.org/2000/svg">
<path d="M18.75 0C18.4185 0 18.1005 0.126428 17.8661 0.351472C17.6317 0.576515 17.5 0.88174 17.5 1.2V7.752L16.25 8.556V1.2C16.25 0.88174 16.1183 0.576515 15.8839 0.351472C15.6495 0.126428 15.3315 0 15 0C14.6685 0 14.3505 0.126428 14.1161 0.351472C13.8817 0.576515 13.75 0.88174 13.75 1.2V8.556L12.5 7.752V1.2C12.5 0.88174 12.3683 0.576515 12.1339 0.351472C11.8995 0.126428 11.5815 0 11.25 0C10.9185 0 10.6005 0.126428 10.3661 0.351472C10.1317 0.576515 10 0.88174 10 1.2V8.4C10.0011 8.59765 10.053 8.79198 10.1511 8.96574C10.2492 9.1395 10.3905 9.28729 10.5625 9.396L13.75 11.448V22.8C13.75 23.1183 13.8817 23.4235 14.1161 23.6485C14.3505 23.8736 14.6685 24 15 24C15.3315 24 15.6495 23.8736 15.8839 23.6485C16.1183 23.4235 16.25 23.1183 16.25 22.8V11.448L19.4375 9.396C19.6094 9.28729 19.7508 9.1395 19.8489 8.96574C19.947 8.79198 19.9989 8.59765 20 8.4V1.2C20 0.88174 19.8683 0.576515 19.6339 0.351472C19.3995 0.126428 19.0815 0 18.75 0ZM6.25 0C4.5924 0 3.00269 0.632141 1.83058 1.75736C0.65848 2.88258 0 4.4087 0 6V13.2C0 13.5183 0.131696 13.8235 0.366117 14.0485C0.600537 14.2736 0.918479 14.4 1.25 14.4H5V22.8C5 23.1183 5.1317 23.4235 5.36612 23.6485C5.60054 23.8736 5.91848 24 6.25 24C6.58152 24 6.89946 23.8736 7.13388 23.6485C7.3683 23.4235 7.5 23.1183 7.5 22.8V1.2C7.5 0.88174 7.3683 0.576515 7.13388 0.351472C6.89946 0.126428 6.58152 0 6.25 0ZM5 12H2.5V6C2.49959 5.25522 2.73982 4.52865 3.18757 3.92042C3.63532 3.3122 4.26855 2.85226 5 2.604V12Z" fill="#E30613"/>
</svg>
