<svg width="32" height="31" viewBox="0 0 32 31" fill="none" xmlns="http://www.w3.org/2000/svg">
<path d="M24.1985 18.0833C23.4354 18.0883 22.6828 18.2624 21.9949 18.5929C21.307 18.9234 20.7009 19.4023 20.2202 19.9949L13.6327 16.9595C13.9424 16.0111 13.9424 14.9888 13.6327 14.0404L20.2202 11.0049C20.9973 11.9427 22.0806 12.5757 23.279 12.7924C24.4774 13.0091 25.7139 12.7955 26.7701 12.1893C27.8264 11.5831 28.6346 10.6232 29.052 9.47915C29.4694 8.33508 29.4693 7.08032 29.0517 5.93632C28.634 4.79233 27.8257 3.83263 26.7693 3.22662C25.713 2.6206 24.4765 2.40722 23.2781 2.62413C22.0797 2.84104 20.9965 3.47429 20.2196 4.41214C19.4426 5.34999 19.022 6.53213 19.0318 7.74994C19.0357 8.05766 19.066 8.36448 19.1222 8.66703L12.3022 11.8058C11.5751 11.0948 10.6544 10.6142 9.65537 10.4242C8.65635 10.2343 7.62347 10.3433 6.68615 10.7377C5.74882 11.1322 4.94874 11.7944 4.38614 12.6416C3.82354 13.4887 3.52344 14.483 3.52344 15.4999C3.52344 16.5169 3.82354 17.5112 4.38614 18.3583C4.94874 19.2055 5.74882 19.8677 6.68615 20.2621C7.62347 20.6566 8.65635 20.7656 9.65537 20.5756C10.6544 20.3857 11.5751 19.9051 12.3022 19.1941L19.1222 22.3329C19.066 22.6354 19.0357 22.9422 19.0318 23.2499C19.0318 24.2718 19.3349 25.2707 19.9026 26.1204C20.4703 26.97 21.2772 27.6323 22.2213 28.0233C23.1654 28.4144 24.2042 28.5167 25.2065 28.3173C26.2087 28.118 27.1293 27.6259 27.8519 26.9033C28.5745 26.1808 29.0665 25.2601 29.2659 24.2579C29.4652 23.2557 29.3629 22.2168 28.9719 21.2727C28.5808 20.3287 27.9186 19.5217 27.0689 18.954C26.2193 18.3863 25.2204 18.0833 24.1985 18.0833ZM24.1985 5.16661C24.7094 5.16661 25.2089 5.31812 25.6337 5.60198C26.0585 5.88584 26.3897 6.2893 26.5852 6.76135C26.7807 7.23339 26.8319 7.75281 26.7322 8.25393C26.6325 8.75505 26.3865 9.21535 26.0252 9.57664C25.6639 9.93792 25.2036 10.184 24.7025 10.2836C24.2014 10.3833 23.6819 10.3322 23.2099 10.1366C22.7379 9.94111 22.3344 9.60999 22.0505 9.18517C21.7667 8.76034 21.6152 8.26088 21.6152 7.74994C21.6152 7.0648 21.8873 6.40772 22.3718 5.92325C22.8563 5.43878 23.5134 5.16661 24.1985 5.16661ZM8.6985 18.0833C8.18756 18.0833 7.6881 17.9318 7.26327 17.6479C6.83845 17.364 6.50733 16.9606 6.31181 16.4885C6.11628 16.0165 6.06512 15.4971 6.1648 14.996C6.26448 14.4948 6.51052 14.0345 6.8718 13.6733C7.23309 13.312 7.6934 13.0659 8.19451 12.9662C8.69563 12.8666 9.21505 12.9177 9.6871 13.1133C10.1591 13.3088 10.5626 13.6399 10.8465 14.0647C11.1303 14.4895 11.2818 14.989 11.2818 15.4999C11.2818 16.1851 11.0097 16.8422 10.5252 17.3266C10.0407 17.8111 9.38364 18.0833 8.6985 18.0833ZM24.1985 25.8333C23.6876 25.8333 23.1881 25.6818 22.7633 25.3979C22.3384 25.114 22.0073 24.7106 21.8118 24.2385C21.6163 23.7665 21.5651 23.2471 21.6648 22.746C21.7645 22.2448 22.0105 21.7845 22.3718 21.4233C22.7331 21.062 23.1934 20.8159 23.6945 20.7162C24.1956 20.6166 24.7151 20.6677 25.1871 20.8633C25.6591 21.0588 26.0626 21.3899 26.3465 21.8147C26.6303 22.2395 26.7818 22.739 26.7818 23.2499C26.7818 23.9351 26.5097 24.5922 26.0252 25.0766C25.5407 25.5611 24.8836 25.8333 24.1985 25.8333Z" fill="white"/>
</svg>
