<svg width="40" height="40" viewBox="0 0 40 40" fill="none" xmlns="http://www.w3.org/2000/svg">
<path d="M30.5004 14.3165L32.017 12.8165C32.3309 12.5027 32.5072 12.077 32.5072 11.6332C32.5072 11.1893 32.3309 10.7637 32.017 10.4498C31.7032 10.136 31.2775 9.95968 30.8337 9.95968C30.3899 9.95968 29.9642 10.136 29.6504 10.4498L28.1504 11.9665C25.8146 10.1596 22.9451 9.17923 19.992 9.17923C17.039 9.17923 14.1694 10.1596 11.8337 11.9665L10.317 10.4332C10.001 10.1193 9.57321 9.9439 9.12781 9.94546C8.68241 9.94702 8.25588 10.1255 7.94204 10.4415C7.6282 10.7576 7.45276 11.1853 7.45432 11.6307C7.45589 12.0761 7.63432 12.5027 7.95037 12.8165L9.4837 14.3332C7.65539 16.6624 6.66335 19.5387 6.66704 22.4998C6.66159 24.6255 7.16447 26.7217 8.13374 28.6136C9.10301 30.5055 10.5106 32.1382 12.239 33.3756C13.9675 34.6129 15.9667 35.4191 18.0701 35.7268C20.1734 36.0346 22.3198 35.835 24.3303 35.1447C26.3408 34.4543 28.1571 33.2933 29.6277 31.7584C31.0984 30.2236 32.1807 28.3593 32.7845 26.3211C33.3883 24.283 33.496 22.13 33.0987 20.0417C32.7013 17.9535 31.8105 15.9905 30.5004 14.3165ZM20.0004 32.4998C18.0226 32.4998 16.0892 31.9133 14.4447 30.8145C12.8002 29.7157 11.5185 28.1539 10.7616 26.3267C10.0047 24.4994 9.80666 22.4887 10.1925 20.5489C10.5784 18.6091 11.5308 16.8273 12.9293 15.4288C14.3278 14.0302 16.1097 13.0778 18.0495 12.692C19.9893 12.3061 21.9999 12.5042 23.8272 13.261C25.6545 14.0179 27.2163 15.2996 28.3151 16.9441C29.4139 18.5886 30.0004 20.522 30.0004 22.4998C30.0004 25.152 28.9468 27.6955 27.0714 29.5709C25.1961 31.4463 22.6525 32.4998 20.0004 32.4998ZM16.667 7.49984H23.3337C23.7757 7.49984 24.1997 7.32424 24.5122 7.01168C24.8248 6.69912 25.0004 6.2752 25.0004 5.83317C25.0004 5.39114 24.8248 4.96722 24.5122 4.65466C24.1997 4.3421 23.7757 4.1665 23.3337 4.1665H16.667C16.225 4.1665 15.8011 4.3421 15.4885 4.65466C15.176 4.96722 15.0004 5.39114 15.0004 5.83317C15.0004 6.2752 15.176 6.69912 15.4885 7.01168C15.8011 7.32424 16.225 7.49984 16.667 7.49984ZM21.667 17.4998C21.667 17.0578 21.4914 16.6339 21.1789 16.3213C20.8663 16.0088 20.4424 15.8332 20.0004 15.8332C19.5583 15.8332 19.1344 16.0088 18.8219 16.3213C18.5093 16.6339 18.3337 17.0578 18.3337 17.4998V20.6498C17.9563 20.9874 17.6903 21.4316 17.5709 21.9236C17.4515 22.4156 17.4843 22.9323 17.6649 23.4053C17.8456 23.8783 18.1656 24.2852 18.5826 24.5724C18.9997 24.8595 19.4941 25.0132 20.0004 25.0132C20.5067 25.0132 21.0011 24.8595 21.4181 24.5724C21.8351 24.2852 22.1551 23.8783 22.3358 23.4053C22.5165 22.9323 22.5493 22.4156 22.4298 21.9236C22.3104 21.4316 22.0444 20.9874 21.667 20.6498V17.4998Z" fill="#E30613"/>
</svg>
