<svg width="102" height="101" viewBox="0 0 102 101" fill="none" xmlns="http://www.w3.org/2000/svg">
<path d="M78.1713 24.463C95.3235 46.8419 81.6429 68.3248 72.6586 76.2689C49.1272 95.8635 29.2249 81.422 21.5753 73.9049C13.9257 66.3877 15.0273 57.1383 15.2573 54.6322C15.4873 52.1262 20.7392 38.9579 23.7974 33.1711C26.244 28.5416 30.5959 23.3439 32.4661 21.3238C40.5544 13.0456 61.7122 2.98825 78.1713 24.463Z" fill="#F4DED3"/>
<rect width="3.89031e-06" height="44.5" transform="translate(2 50) rotate(-90)" fill="#393939"/>
<path d="M47.2071 50.7071C47.5976 50.3166 47.5976 49.6834 47.2071 49.2929L40.8431 42.9289C40.4526 42.5384 39.8195 42.5384 39.4289 42.9289C39.0384 43.3195 39.0384 43.9526 39.4289 44.3431L45.0858 50L39.4289 55.6569C39.0384 56.0474 39.0384 56.6805 39.4289 57.0711C39.8195 57.4616 40.4526 57.4616 40.8431 57.0711L47.2071 50.7071ZM46.5 49L2 49L2 51L46.5 51L46.5 49Z" fill="#966D4F"/>
</svg>
