<svg width="102" height="101" viewBox="0 0 102 101" fill="none" xmlns="http://www.w3.org/2000/svg">
<path d="M23.2469 76.0302C6.09472 53.6513 19.7753 32.1683 28.7596 24.2242C52.291 4.62968 72.1933 19.0711 79.8429 26.5883C87.4925 34.1055 86.3909 43.3549 86.1609 45.8609C85.9309 48.3669 80.679 61.5352 77.6208 67.3221C75.1742 71.9515 70.8223 77.1492 68.9522 79.1694C60.8638 87.4475 39.706 97.5049 23.2469 76.0302Z" fill="#F4DED3"/>
<rect width="3.89031e-06" height="44.5" transform="translate(99.4185 50.4932) rotate(90)" fill="#393939"/>
<path d="M54.2114 49.7861C53.8208 50.1766 53.8208 50.8097 54.2114 51.2003L60.5753 57.5642C60.9658 57.9548 61.599 57.9548 61.9895 57.5642C62.38 57.1737 62.38 56.5405 61.9895 56.15L56.3327 50.4932L61.9895 44.8363C62.3801 44.4458 62.3801 43.8126 61.9895 43.4221C61.599 43.0316 60.9658 43.0316 60.5753 43.4221L54.2114 49.7861ZM54.9185 51.4932L99.4185 51.4932L99.4185 49.4932L54.9185 49.4932L54.9185 51.4932Z" fill="#966D4F"/>
</svg>
